<svg slot="off" aria-hidden="true" fill="none" viewBox="0 0 24 24">
  <path stroke="currentColor" stroke-linecap="round" stroke-linejoin="round" stroke-width="1.6" d="M17.367 9.625a2.513 2.513 0 0 0-3.469.144 2.494 2.494 0 0 0 0 3.461 2.513 2.513 0 0 0 3.469.145m-6.7-3.75a2.513 2.513 0 0 0-3.469.144 2.494 2.494 0 0 0 0 3.461 2.512 2.512 0 0 0 3.469.145"/>
  <path fill="currentColor" d="M17 18v-1h-.468l-.3.36L17 18Zm-5 0 .768-.64-.3-.36H12v1Zm2.5 3-.768.64a1 1 0 0 0 1.536 0L14.5 21ZM6 6h12V4H6v2Zm14 2v7h2V8h-2ZM4 15V8H2v7h2Zm14 2h-1v2h1v-2Zm-6 0H6v2h6v-2Zm4.232.36-2.5 3 1.536 1.28 2.5-3-1.536-1.28Zm-.964 3-2.5-3-1.536 1.28 2.5 3 1.536-1.28ZM2 15a4 4 0 0 0 4 4v-2a2 2 0 0 1-2-2H2Zm18 0a2 2 0 0 1-2 2v2a4 4 0 0 0 4-4h-2Zm-2-9a2 2 0 0 1 2 2h2a4 4 0 0 0-4-4v2ZM6 4a4 4 0 0 0-4 4h2a2 2 0 0 1 2-2V4Z"/>
</svg>
