<svg slot="on" aria-hidden="true" fill="none" viewBox="0 0 24 24">
  <path fill="currentColor" fill-rule="evenodd" d="M2 8a4 4 0 0 1 4-4h12a4 4 0 0 1 4 4v7a4 4 0 0 1-4 4h-.532l-2.2 2.64a1 1 0 0 1-1.536 0l-2.2-2.64H5.999A4 4 0 0 1 2 15V8Zm13.57.183a3.333 3.333 0 0 1 2.338.826.82.82 0 0 1-1.083 1.232 1.693 1.693 0 0 0-2.336.097 1.674 1.674 0 0 0 0 2.324 1.692 1.692 0 0 0 2.336.097.82.82 0 0 1 1.083 1.232 3.333 3.333 0 0 1-4.6-.191 3.314 3.314 0 0 1 0-4.6m2.261-1.017c-.856.035-1.666.4-2.261 1.017Zm-6.7-.005a3.338 3.338 0 0 1 2.342.828.825.825 0 0 1-1.089 1.239 1.688 1.688 0 0 0-2.33.097 1.669 1.669 0 0 0 0 2.316 1.688 1.688 0 0 0 2.33.097.825.825 0 1 1 1.09 1.24 3.338 3.338 0 0 1-4.608-.192 3.319 3.319 0 0 1 0-4.606m2.265-1.02a3.347 3.347 0 0 0-2.265 1.02Z" clip-rule="evenodd"/>
</svg>
